<?xml version="1.0" encoding="iso-8859-1"?>
<!-- Generator: Adobe Illustrator 19.0.0, SVG Export Plug-In . SVG Version: 6.00 Build 0)  -->
<svg version="1.1" id="Capa_1" xmlns="http://www.w3.org/2000/svg" xmlns:xlink="http://www.w3.org/1999/xlink" x="0px" y="0px"
	 viewBox="0 0 512 512" style="enable-background:new 0 0 512 512;" xml:space="preserve">
<g>
	<g>
		<path d="M480,96H96c-17.673,0-32,14.327-32,32v320c0,17.673,14.327,32,32,32h384c17.673,0,32-14.327,32-32V128
			C512,110.327,497.673,96,480,96z M490.667,448c0,5.891-4.776,10.667-10.667,10.667H96c-5.891,0-10.667-4.776-10.667-10.667V128
			c0-5.891,4.776-10.667,10.667-10.667h384c5.891,0,10.667,4.776,10.667,10.667V448z"/>
	</g>
</g>
<g>
	<g>
		<path d="M437.333,32H32C14.327,32,0,46.327,0,64v341.333c0,17.673,14.327,32,32,32h10.667V416H32
			c-5.891,0-10.667-4.776-10.667-10.667V64c0-5.891,4.776-10.667,10.667-10.667h405.333C443.224,53.333,448,58.109,448,64v10.667
			h21.333V64C469.333,46.327,455.006,32,437.333,32z"/>
	</g>
</g>
<g>
	<g>
		<path d="M242.208,248.459c-4.165-4.164-10.917-4.164-15.083,0l-160,160l15.083,15.083l152.459-152.459l163.125,163.125
			l15.083-15.083L242.208,248.459z"/>
	</g>
</g>
<g>
	<g>
		<path d="M391.541,248.459c-4.165-4.164-10.917-4.164-15.083,0l-53.333,53.333l15.083,15.083L384,271.083l109.792,109.792
			l15.083-15.083L391.541,248.459z"/>
	</g>
</g>
<g>
	<g>
		<path d="M309.333,138.667C279.878,138.667,256,162.545,256,192s23.878,53.333,53.333,53.333
			c29.441-0.035,53.298-23.893,53.333-53.333C362.667,162.545,338.789,138.667,309.333,138.667z M309.333,224
			c-17.673,0-32-14.327-32-32s14.327-32,32-32c17.673,0,32,14.327,32,32S327.006,224,309.333,224z"/>
	</g>
</g>
<g>
</g>
<g>
</g>
<g>
</g>
<g>
</g>
<g>
</g>
<g>
</g>
<g>
</g>
<g>
</g>
<g>
</g>
<g>
</g>
<g>
</g>
<g>
</g>
<g>
</g>
<g>
</g>
<g>
</g>
</svg>
